<svg width="54" height="54" viewBox="0 0 54 54" fill="none" xmlns="http://www.w3.org/2000/svg">
<path d="M47.6596 0.76123H6.40963C3.24557 0.76123 0.78463 3.33936 0.78463 6.38623V47.6362C0.78463 50.8003 3.24557 53.2612 6.40963 53.2612H22.4643V35.4487H15.0815V27.0112H22.4643V20.6831C22.4643 13.4175 26.8003 9.31592 33.3628 9.31592C36.644 9.31592 39.9253 9.90186 39.9253 9.90186V17.0503H36.2924C32.6596 17.0503 31.4878 19.2769 31.4878 21.6206V27.0112H39.5737L38.2846 35.4487H31.4878V53.2612H47.6596C50.7065 53.2612 53.2846 50.8003 53.2846 47.6362V6.38623C53.2846 3.33936 50.7065 0.76123 47.6596 0.76123Z" fill="white"/>
</svg>
