<svg width="36" height="36" viewBox="0 0 36 36" fill="none" xmlns="http://www.w3.org/2000/svg">
<path d="M17.9888 9.03259C12.9888 9.03259 9.00441 13.0951 9.00441 18.017C9.00441 23.017 12.9888 27.0013 17.9888 27.0013C22.9107 27.0013 26.9732 23.017 26.9732 18.017C26.9732 13.0951 22.9107 9.03259 17.9888 9.03259ZM17.9888 23.8763C14.7857 23.8763 12.1294 21.2982 12.1294 18.017C12.1294 14.8138 14.7075 12.2357 17.9888 12.2357C21.1919 12.2357 23.77 14.8138 23.77 18.017C23.77 21.2982 21.1919 23.8763 17.9888 23.8763ZM29.395 8.72009C29.395 7.54822 28.4575 6.61072 27.2857 6.61072C26.1138 6.61072 25.1763 7.54822 25.1763 8.72009C25.1763 9.89197 26.1138 10.8295 27.2857 10.8295C28.4575 10.8295 29.395 9.89197 29.395 8.72009ZM35.3325 10.8295C35.1763 8.01697 34.5513 5.51697 32.52 3.48572C30.4888 1.45447 27.9888 0.829468 25.1763 0.673218C22.2857 0.516968 13.6138 0.516968 10.7232 0.673218C7.91066 0.829468 5.48879 1.45447 3.37941 3.48572C1.34816 5.51697 0.723164 8.01697 0.566914 10.8295C0.410664 13.7201 0.410664 22.392 0.566914 25.2826C0.723164 28.0951 1.34816 30.517 3.37941 32.6263C5.48879 34.6576 7.91066 35.2826 10.7232 35.4388C13.6138 35.5951 22.2857 35.5951 25.1763 35.4388C27.9888 35.2826 30.4888 34.6576 32.52 32.6263C34.5513 30.517 35.1763 28.0951 35.3325 25.2826C35.4888 22.392 35.4888 13.7201 35.3325 10.8295ZM31.5825 28.3295C31.0357 29.892 29.7857 31.0638 28.3013 31.6888C25.9575 32.6263 20.4888 32.392 17.9888 32.392C15.4107 32.392 9.94191 32.6263 7.67629 31.6888C6.11379 31.0638 4.94191 29.892 4.31691 28.3295C3.37941 26.0638 3.61379 20.5951 3.61379 18.017C3.61379 15.517 3.37941 10.0482 4.31691 7.70447C4.94191 6.22009 6.11379 5.04822 7.67629 4.42322C9.94191 3.48572 15.4107 3.72009 17.9888 3.72009C20.4888 3.72009 25.9575 3.48572 28.3013 4.42322C29.7857 4.97009 30.9575 6.22009 31.5825 7.70447C32.52 10.0482 32.2857 15.517 32.2857 18.017C32.2857 20.5951 32.52 26.0638 31.5825 28.3295Z" fill="white"/>
</svg>
